<svg width="681" height="145" viewBox="0 0 681 145" fill="none" xmlns="http://www.w3.org/2000/svg">
<path d="M525.023 93.208C528.287 93.208 531.183 93.944 533.711 95.416C536.239 96.856 538.207 98.872 539.615 101.464C541.023 104.056 541.727 107 541.727 110.296C541.727 113.592 541.023 116.552 539.615 119.176C538.207 121.768 536.239 123.8 533.711 125.272C531.183 126.712 528.287 127.432 525.023 127.432C521.759 127.432 518.847 126.712 516.287 125.272C513.759 123.8 511.791 121.768 510.383 119.176C508.975 116.552 508.271 113.592 508.271 110.296C508.271 107 508.975 104.056 510.383 101.464C511.791 98.872 513.759 96.856 516.287 95.416C518.847 93.944 521.759 93.208 525.023 93.208ZM525.023 95.416C522.111 95.416 519.567 96.024 517.391 97.24C515.247 98.456 513.583 100.2 512.398 102.472C511.247 104.712 510.671 107.32 510.671 110.296C510.671 113.272 511.247 115.88 512.398 118.12C513.583 120.36 515.247 122.104 517.391 123.352C519.567 124.6 522.111 125.224 525.023 125.224C527.903 125.224 530.415 124.6 532.559 123.352C534.735 122.104 536.399 120.36 537.551 118.12C538.735 115.88 539.327 113.272 539.327 110.296C539.327 107.32 538.735 104.712 537.551 102.472C536.399 100.2 534.751 98.456 532.607 97.24C530.463 96.024 527.935 95.416 525.023 95.416ZM524.879 99.256C522.927 99.256 521.151 99.72 519.551 100.648C517.951 101.544 516.687 102.824 515.759 104.488C514.863 106.152 514.415 108.072 514.415 110.248C514.415 112.424 514.879 114.36 515.807 116.056C516.735 117.72 517.983 119.016 519.551 119.944C521.151 120.84 522.927 121.288 524.879 121.288C527.311 121.288 529.407 120.648 531.167 119.368C532.927 118.056 534.111 116.344 534.719 114.232H529.727C529.311 115.256 528.719 116.04 527.951 116.584C527.183 117.128 526.159 117.4 524.879 117.4C523.183 117.4 521.823 116.792 520.799 115.576C519.775 114.328 519.263 112.552 519.263 110.248C519.263 107.944 519.775 106.184 520.799 104.968C521.823 103.752 523.183 103.144 524.879 103.144C526.095 103.144 527.119 103.416 527.951 103.96C528.815 104.504 529.407 105.288 529.727 106.312H534.719C534.111 104.072 532.943 102.344 531.215 101.128C529.487 99.88 527.375 99.256 524.879 99.256Z" fill="#101010"/>
<path d="M297.555 19.275V127H279.885V53.22L247.025 127H234.78L201.765 53.22V127H184.095V19.275H203.16L240.98 103.75L278.645 19.275H297.555ZM367.125 19.275V96.93C367.125 106.54 364.18 114.135 358.29 119.715C352.503 125.295 344.857 128.085 335.35 128.085C325.843 128.085 318.145 125.295 312.255 119.715C306.468 114.135 303.575 106.54 303.575 96.93H321.4C321.503 101.683 322.692 105.455 324.965 108.245C327.342 111.035 330.803 112.43 335.35 112.43C339.897 112.43 343.358 111.035 345.735 108.245C348.112 105.352 349.3 101.58 349.3 96.93V19.275H367.125ZM496.93 19.275V127H479.26V53.22L446.4 127H434.155L401.14 53.22V127H383.47V19.275H402.535L440.355 103.75L478.02 19.275H496.93Z" fill="#070707"/>
<path d="M435 78.4833L402.5 19.5L403 33.8253V35.0607L440 103.5C453 79 463.5 64 478 35.0607V33.8253V19.5L445.5 78.4833H435Z" fill="#174502" stroke="#174502"/>
<path d="M235.5 78.9833L203 20L203.5 34.3253V35.5607L240.5 104C253.5 79.5 264 64.5 278.5 35.5607V34.3253V20L246 78.9833H235.5Z" fill="#174502" stroke="#174502"/>
</svg>
